<svg xmlns="http://www.w3.org/2000/svg" width="960" height="520" viewBox="0 0 960 520">
<rect width="100%" height="100%" fill="#ffffff"/>
<text x="480.0" y="34" text-anchor="middle" font-family="Arial" font-size="24" fill="#16232a">Top refresh reason codes</text>
<text x="178" y="87.7" text-anchor="end" font-family="Arial" font-size="13" fill="#27343b">declining_with_demand</text>
<rect x="190" y="70.0" width="730.0" height="27.3" fill="#8C6BB1" rx="4"/>
<text x="928.0" y="87.7" font-family="Arial" font-size="13" fill="#27343b">1.32e+04</text>
<text x="178" y="125.0" text-anchor="end" font-family="Arial" font-size="13" fill="#27343b">visible_model_opportunity</text>
<rect x="190" y="107.3" width="591.7" height="27.3" fill="#8C6BB1" rx="4"/>
<text x="789.7" y="125.0" font-family="Arial" font-size="13" fill="#27343b">1.07e+04</text>
<text x="178" y="162.3" text-anchor="end" font-family="Arial" font-size="13" fill="#27343b">low_ctr_visible_page</text>
<rect x="190" y="144.5" width="541.7" height="27.3" fill="#8C6BB1" rx="4"/>
<text x="739.7" y="162.3" font-family="Arial" font-size="13" fill="#27343b">9.76e+03</text>
<text x="178" y="199.5" text-anchor="end" font-family="Arial" font-size="13" fill="#27343b">ctr_review_candidate</text>
<rect x="190" y="181.8" width="541.7" height="27.3" fill="#8C6BB1" rx="4"/>
<text x="739.7" y="199.5" font-family="Arial" font-size="13" fill="#27343b">9.76e+03</text>
<text x="178" y="236.8" text-anchor="end" font-family="Arial" font-size="13" fill="#27343b">general_refresh_review</text>
<rect x="190" y="219.1" width="506.0" height="27.3" fill="#8C6BB1" rx="4"/>
<text x="704.0" y="236.8" font-family="Arial" font-size="13" fill="#27343b">9.12e+03</text>
<text x="178" y="274.1" text-anchor="end" font-family="Arial" font-size="13" fill="#27343b">model_decline_risk</text>
<rect x="190" y="256.4" width="467.6" height="27.3" fill="#8C6BB1" rx="4"/>
<text x="665.6" y="274.1" font-family="Arial" font-size="13" fill="#27343b">8.42e+03</text>
<text x="178" y="311.4" text-anchor="end" font-family="Arial" font-size="13" fill="#27343b">page_one_decay_risk</text>
<rect x="190" y="293.6" width="392.8" height="27.3" fill="#8C6BB1" rx="4"/>
<text x="590.8" y="311.4" font-family="Arial" font-size="13" fill="#27343b">7.08e+03</text>
<text x="178" y="348.6" text-anchor="end" font-family="Arial" font-size="13" fill="#27343b">low_engagement_visible_page</text>
<rect x="190" y="330.9" width="361.2" height="27.3" fill="#8C6BB1" rx="4"/>
<text x="559.2" y="348.6" font-family="Arial" font-size="13" fill="#27343b">6.51e+03</text>
<text x="178" y="385.9" text-anchor="end" font-family="Arial" font-size="13" fill="#27343b">engagement_review_candidate</text>
<rect x="190" y="368.2" width="361.2" height="27.3" fill="#8C6BB1" rx="4"/>
<text x="559.2" y="385.9" font-family="Arial" font-size="13" fill="#27343b">6.51e+03</text>
<text x="178" y="423.2" text-anchor="end" font-family="Arial" font-size="13" fill="#27343b">thin_visible_page</text>
<rect x="190" y="405.5" width="4.6" height="27.3" fill="#8C6BB1" rx="4"/>
<text x="202.6" y="423.2" font-family="Arial" font-size="13" fill="#27343b">82</text>
<text x="178" y="460.5" text-anchor="end" font-family="Arial" font-size="13" fill="#27343b">stale_visible_page</text>
<rect x="190" y="442.7" width="0.9" height="27.3" fill="#8C6BB1" rx="4"/>
<text x="198.9" y="460.5" font-family="Arial" font-size="13" fill="#27343b">17</text>
</svg>